<svg width="290" height="32" viewBox="0 0 290 32" fill="none" xmlns="http://www.w3.org/2000/svg">
<g clip-path="url(#clip0_2001_2313)">
<path d="M10.0004 6.98181H5.55874V0.244849C5.55874 0.146007 5.48054 0.0673828 5.38223 0.0673828H0.176503C0.0781977 0.0673828 0 0.146007 0 0.244849V26.2807C0 26.3772 0.0781977 26.4559 0.176503 26.4559H8.63079C11.1778 26.4559 12.954 26.1908 14.223 25.6225C17.6235 24.0702 19.2768 21.0623 19.2768 16.4234C19.2768 13.6357 18.363 11.0208 16.8929 9.60336C15.1569 7.92979 13.9795 6.98181 10.0004 6.98181ZM12.525 20.6152C11.58 21.6441 10.1344 21.7834 8.8475 21.7834H5.43362V11.6588H8.8475C12.1363 11.6588 13.6042 13.2493 13.6042 16.8166C13.6042 18.4362 13.4209 19.6358 12.525 20.6152Z" fill="#092D4E"/>
<path d="M34.0742 6.98169H28.768C24.8827 6.98169 21.7324 10.1491 21.7324 14.0556L21.7637 19.4065C21.7637 23.313 24.9139 26.4805 28.7993 26.4805H38.9136L39.7626 22.082H29.9186C28.3569 22.082 27.0901 20.6488 27.0901 19.0786V18.8023H41.1411V15.1361L41.1098 14.0556C41.1098 10.1491 37.9596 6.98169 34.0742 6.98169ZM35.8147 14.6037H27.0901V13.9433C27.0901 12.3731 28.3569 11.4183 29.9186 11.4183H32.9862C34.5479 11.4183 35.8147 12.2652 35.8147 13.8355V14.6037Z" fill="#092D4E"/>
<path d="M88.1806 7.17937C87.4969 7.04908 86.1184 6.98169 84.083 6.98169H75.8902C75.8075 6.98169 75.736 7.0401 75.7181 7.12097L74.8624 11.16C74.8378 11.2701 74.9227 11.3734 75.0345 11.3734H84.7041C86.4848 11.3734 87.7941 12.0631 87.7941 14.3948V14.4397C87.7941 14.5363 87.7159 14.6172 87.6176 14.6172H81.5785C79.59 14.6172 78.1288 14.7632 77.2352 15.053C76.1717 15.399 75.3048 16.0931 74.6546 17.1152C74.0067 18.1351 73.6895 19.2448 73.6895 20.5657C73.6895 22.684 74.4625 24.3688 75.9237 25.4404C76.6386 25.9705 77.6574 26.3075 78.9533 26.44C79.3733 26.467 80.4413 26.4782 82.2152 26.4782H93.1919C93.288 26.4782 93.3662 26.3996 93.3662 26.303V15.5629C93.3662 11.7036 92.9417 10.5243 91.7419 9.1315C90.8728 8.12511 89.6395 7.45119 88.1806 7.17937ZM87.8075 22.0303C87.8075 22.1292 87.7293 22.2078 87.6332 22.2078H81.1138C80.0704 22.2078 79.2549 21.6282 79.2549 20.4871C79.2549 19.3616 79.8626 18.8135 81.1138 18.8135H87.6332C87.7293 18.8135 87.8075 18.8921 87.8075 18.991V22.0303Z" fill="#092D4E"/>
<path d="M63.6235 6.98169H44.4382C44.3399 6.98169 44.2617 7.06031 44.2617 7.15916V26.2805C44.2617 26.3794 44.3399 26.458 44.4382 26.458H49.6439C49.7423 26.458 49.8205 26.3794 49.8205 26.2805L49.8115 11.5936C49.8115 11.497 49.8897 11.4183 49.988 11.4183H55.0172L55.0284 26.2805C55.0284 26.3794 55.1066 26.458 55.2049 26.458H60.5358C60.6318 26.458 60.71 26.3794 60.71 26.2805L60.6989 11.5936C60.6989 11.497 60.7771 11.4183 60.8754 11.4183H64.2356C65.4242 11.4183 66.1883 12.3416 66.1883 13.6625V26.2805C66.1883 26.3794 66.2665 26.458 66.3648 26.458H71.4477C71.5438 26.458 71.6242 26.3794 71.6242 26.2805V13.7119C71.6242 11.0409 71.3248 10.3041 69.9977 8.93381C69.133 8.04424 67.3278 6.98169 63.6235 6.98169Z" fill="#092D4E"/>
<path d="M99.7382 26.4807C101.568 26.4807 103.051 24.9892 103.051 23.1493C103.051 21.3094 101.568 19.8179 99.7382 19.8179C97.9082 19.8179 96.4248 21.3094 96.4248 23.1493C96.4248 24.9892 97.9082 26.4807 99.7382 26.4807Z" fill="#092D4E"/>
<path d="M122.189 13.3053C119.93 13.3053 118.389 14.5611 117.83 15.7651V7.15918H115.703V26.4805H117.776V24.3689C118.52 25.7594 120.008 26.8534 122.135 26.8534C125.829 26.8534 127.982 23.8859 127.982 20.0648C127.982 16.3245 125.963 13.3053 122.189 13.3053ZM121.816 24.9305C119.372 24.9305 117.776 22.9267 117.776 20.067C117.776 17.2343 119.345 15.2305 121.816 15.2305C124.287 15.2305 125.855 17.2365 125.855 20.067C125.855 22.9267 124.26 24.9305 121.816 24.9305Z" fill="#092D4E"/>
<path d="M141.54 13.6807H139.413V21.4038C139.413 23.4345 138.296 24.9306 136.171 24.9306C133.912 24.9306 133.034 23.2211 133.034 21.3768V13.6807H130.907V21.7228C130.907 24.5825 132.607 26.8536 135.691 26.8536C137.391 26.8536 138.908 26.0516 139.518 24.7419V24.8498C139.518 25.49 139.572 26.1864 139.65 26.4807H141.696C141.616 25.973 141.538 25.0632 141.538 24.0748V13.6807H141.54Z" fill="#092D4E"/>
<path d="M147.442 13.6807H145.315V26.4807H147.442V13.6807Z" fill="#092D4E"/>
<path d="M146.379 7.02441C145.504 7.02441 144.784 7.74551 144.784 8.62835C144.784 9.51118 145.501 10.2323 146.379 10.2323C147.255 10.2323 147.975 9.51118 147.975 8.62835C147.975 7.74776 147.257 7.02441 146.379 7.02441Z" fill="#092D4E"/>
<path d="M153.344 7.15918H151.217V26.4805H153.344V7.15918Z" fill="#092D4E"/>
<path d="M168.547 7.15918H166.42V15.7382C165.995 14.6689 164.744 13.3076 162.3 13.3076C158.765 13.3076 156.399 16.3537 156.399 20.0693C156.399 23.8634 158.631 26.8579 162.3 26.8579C164.478 26.8579 165.915 25.5482 166.474 24.2925V24.6407C166.474 25.4696 166.527 26.1907 166.605 26.485H168.679C168.598 26.1907 168.547 25.3618 168.547 24.0791V7.15918ZM162.488 24.9305C160.068 24.9305 158.526 22.9267 158.526 20.067C158.526 17.2343 160.068 15.2305 162.488 15.2305C164.932 15.2305 166.474 17.2365 166.474 20.067C166.474 22.9267 164.878 24.9305 162.488 24.9305Z" fill="#092D4E"/>
<path d="M174.477 13.6807H172.35V26.4807H174.477V13.6807Z" fill="#092D4E"/>
<path d="M173.414 7.02441C172.538 7.02441 171.818 7.74551 171.818 8.62835C171.818 9.51118 172.536 10.2323 173.414 10.2323C174.289 10.2323 175.009 9.51118 175.009 8.62835C175.007 7.74776 174.289 7.02441 173.414 7.02441Z" fill="#092D4E"/>
<path d="M184.285 13.3054C182.585 13.3054 181.121 14.1074 180.299 15.6035V13.6806H178.226V26.4806H180.353V18.9439C180.353 16.9131 181.496 15.2283 183.543 15.2283C185.855 15.2283 186.707 16.7514 186.707 18.5957V26.4783H188.834V18.2767C188.829 15.4979 187.341 13.3054 184.285 13.3054Z" fill="#092D4E"/>
<path d="M201.482 15.4979C200.843 14.2422 199.489 13.3054 197.469 13.3054C194.015 13.3054 191.676 16.0573 191.676 19.638C191.676 23.1918 194.042 25.919 197.418 25.919C199.518 25.919 200.847 24.7958 201.457 23.54V25.5977C201.457 28.244 200.367 30.0074 197.391 30.0074C195.291 30.0074 193.908 28.5899 193.698 26.694L191.651 27.2017C191.944 29.9018 194.308 31.9326 197.393 31.9326C202.177 31.9326 203.587 28.6461 203.587 25.5191V13.6806H201.486V15.4979H201.482ZM197.682 23.9938C195.342 23.9938 193.801 22.2843 193.801 19.6111C193.801 16.9379 195.342 15.2283 197.682 15.2283C200.021 15.2283 201.562 16.9379 201.562 19.6111C201.562 22.2843 200.021 23.9938 197.682 23.9938Z" fill="#092D4E"/>
<path d="M219.293 23.9939L215.466 13.6807H213.073L218.203 26.4807H220.357L225.433 13.6807H223.147L219.293 23.9939Z" fill="#092D4E"/>
<path d="M229.981 13.6807H227.854V26.4807H229.981V13.6807Z" fill="#092D4E"/>
<path d="M228.918 7.02441C228.04 7.02441 227.323 7.74551 227.323 8.62835C227.323 9.51118 228.04 10.2323 228.918 10.2323C229.794 10.2323 230.514 9.51118 230.514 8.62835C230.511 7.74776 229.794 7.02441 228.918 7.02441Z" fill="#092D4E"/>
<path d="M238.963 19.2651L236.889 18.7843C235.774 18.517 235.216 17.9307 235.216 17.0479C235.216 15.9786 236.226 15.125 237.582 15.125C239.575 15.125 240.292 16.5671 240.426 17.423L242.314 16.7289C242.021 15.4192 240.88 13.3076 237.584 13.3076C235.165 13.3076 233.145 15.0441 233.145 17.1827C233.145 19.027 234.367 20.2827 236.308 20.7365L238.382 21.2172C239.55 21.5115 240.321 22.127 240.321 23.0885C240.321 24.1847 239.363 25.0383 237.85 25.0383C235.935 25.0383 234.847 23.9421 234.66 22.446L232.747 23.1132C232.959 24.7171 234.474 26.8557 237.823 26.8557C240.853 26.8557 242.421 24.8249 242.421 22.9806C242.419 21.0555 241.197 19.7728 238.963 19.2651Z" fill="#092D4E"/>
<path d="M246.488 7.02441C245.61 7.02441 244.893 7.74551 244.893 8.62835C244.893 9.51118 245.61 10.2323 246.488 10.2323C247.364 10.2323 248.083 9.51118 248.083 8.62835C248.083 7.74776 247.364 7.02441 246.488 7.02441Z" fill="#092D4E"/>
<path d="M247.552 13.6807H245.425V26.4807H247.552V13.6807Z" fill="#092D4E"/>
<path d="M256.882 13.3054C253.188 13.3054 250.503 16.1381 250.503 20.0671C250.503 24.023 253.188 26.8557 256.882 26.8557C260.575 26.8557 263.26 24.023 263.26 20.0671C263.26 16.1381 260.575 13.3054 256.882 13.3054ZM256.882 24.9306C254.623 24.9306 252.63 23.1941 252.63 20.0671C252.63 16.9671 254.623 15.2306 256.882 15.2306C259.14 15.2306 261.133 16.9693 261.133 20.0671C261.133 23.1941 259.14 24.9306 256.882 24.9306Z" fill="#092D4E"/>
<path d="M272.325 13.3054C270.625 13.3054 269.161 14.1074 268.339 15.6035V13.6806H266.266V26.4806H268.393V18.9439C268.393 16.9131 269.537 15.2283 271.581 15.2283C273.893 15.2283 274.744 16.7514 274.744 18.5957V26.4783H276.871V18.2767C276.869 15.4979 275.381 13.3054 272.325 13.3054Z" fill="#092D4E"/>
<path d="M285.775 19.2651L283.701 18.7843C282.584 18.517 282.026 17.9307 282.026 17.0479C282.026 15.9786 283.036 15.125 284.392 15.125C286.385 15.125 287.104 16.5671 287.236 17.423L289.122 16.7289C288.829 15.4192 287.687 13.3076 284.392 13.3076C281.972 13.3076 279.952 15.0441 279.952 17.1827C279.952 19.027 281.175 20.2827 283.116 20.7365L285.189 21.2172C286.358 21.5115 287.129 22.127 287.129 23.0885C287.129 24.1847 286.17 25.0383 284.658 25.0383C282.743 25.0383 281.655 23.9421 281.469 22.446L279.555 23.1132C279.767 24.7171 281.282 26.8557 284.631 26.8557C287.66 26.8557 289.229 24.8249 289.229 22.9806C289.231 21.0555 288.009 19.7728 285.775 19.2651Z" fill="#092D4E"/>
</g>
<defs>
<clipPath id="clip0_2001_2313">
<rect width="289.231" height="32" fill="white"/>
</clipPath>
</defs>
</svg>
