<svg width="1164" height="130" viewBox="0 0 1164 130" fill="none" xmlns="http://www.w3.org/2000/svg">
<g clip-path="url(#clip0_442_5023)">
<path d="M40.2461 28.3635H22.371V0.994636C22.371 0.593092 22.0563 0.273682 21.6606 0.273682H0.710332C0.314704 0.273682 0 0.593092 0 0.994636V106.765C0 107.158 0.314704 107.477 0.710332 107.477H34.7343C44.9847 107.477 52.133 106.4 57.2402 104.091C70.9253 97.7851 77.579 85.5654 77.579 66.7202C77.579 55.3948 73.9015 44.7721 67.985 39.0136C60.9986 32.2147 56.2601 28.3635 40.2461 28.3635ZM50.4066 83.7493C46.6032 87.929 40.7856 88.4948 35.6065 88.4948H21.8674V47.3639H35.6065C48.8421 47.3639 54.7495 53.8251 54.7495 68.3172C54.7495 74.8971 54.0122 79.7703 50.4066 83.7493Z" fill="white"/>
<path d="M137.13 28.3635H115.775C100.139 28.3635 87.4607 41.2312 87.4607 57.1013L87.5866 78.8395C87.5866 94.7096 100.265 107.577 115.901 107.577H156.606L160.022 89.7086H120.406C114.121 89.7086 109.022 83.8862 109.022 77.5071V76.3846H165.57V61.4909L165.444 57.1013C165.444 41.2312 152.766 28.3635 137.13 28.3635ZM144.134 59.3281H109.022V56.645C109.022 50.2659 114.121 46.3874 120.406 46.3874H132.751C139.036 46.3874 144.134 49.8279 144.134 56.207V59.3281Z" fill="white"/>
<path d="M354.878 29.1666C352.127 28.6373 346.579 28.3635 338.388 28.3635H305.416C305.083 28.3635 304.795 28.6008 304.723 28.9293L301.28 45.3379C301.181 45.7851 301.522 46.2049 301.972 46.2049H340.887C348.054 46.2049 353.323 49.0066 353.323 58.4794V58.6619C353.323 59.0543 353.008 59.3828 352.612 59.3828H328.308C320.306 59.3828 314.425 59.976 310.829 61.1533C306.549 62.5587 303.06 65.3786 300.443 69.531C297.836 73.6742 296.559 78.1824 296.559 83.5485C296.559 92.1543 299.67 98.9988 305.551 103.352C308.428 105.506 312.528 106.875 317.743 107.413C319.434 107.523 323.732 107.568 330.871 107.568H375.046C375.433 107.568 375.748 107.249 375.748 106.856V63.2249C375.748 47.5464 374.039 42.7552 369.211 37.0971C365.713 33.0087 360.75 30.2709 354.878 29.1666ZM353.377 89.4987C353.377 89.9002 353.062 90.2196 352.675 90.2196H326.438C322.239 90.2196 318.957 87.8651 318.957 83.2291C318.957 78.657 321.403 76.4302 326.438 76.4302H352.675C353.062 76.4302 353.377 76.7496 353.377 77.1512V89.4987Z" fill="white"/>
<path d="M256.052 28.3635H178.842C178.446 28.3635 178.131 28.6829 178.131 29.0845V106.765C178.131 107.167 178.446 107.486 178.842 107.486H199.792C200.188 107.486 200.502 107.167 200.502 106.765L200.466 47.0992C200.466 46.7068 200.781 46.3874 201.177 46.3874H221.417L221.462 106.765C221.462 107.167 221.776 107.486 222.172 107.486H243.626C244.013 107.486 244.327 107.167 244.327 106.765L244.282 47.0992C244.282 46.7068 244.597 46.3874 244.993 46.3874H258.516C263.299 46.3874 266.374 50.1382 266.374 55.5043V106.765C266.374 107.167 266.689 107.486 267.085 107.486H287.541C287.927 107.486 288.251 107.167 288.251 106.765V55.705C288.251 44.8542 287.046 41.8609 281.705 36.294C278.225 32.6801 270.96 28.3635 256.052 28.3635Z" fill="white"/>
<path d="M401.391 107.577C408.756 107.577 414.726 101.518 414.726 94.0434C414.726 86.5688 408.756 80.5095 401.391 80.5095C394.027 80.5095 388.057 86.5688 388.057 94.0434C388.057 101.518 394.027 107.577 401.391 107.577Z" fill="white"/>
<path d="M491.747 54.0532C482.657 54.0532 476.453 59.1547 474.205 64.0462V29.0845H465.645V107.577H473.989V98.9988C476.983 104.648 482.972 109.092 491.532 109.092C506.395 109.092 515.063 97.0367 515.063 81.5134C515.063 66.3186 506.934 54.0532 491.747 54.0532ZM490.246 101.28C480.409 101.28 473.989 93.1399 473.989 81.5225C473.989 70.0146 480.301 61.8742 490.246 61.8742C500.191 61.8742 506.503 70.0238 506.503 81.5225C506.503 93.1399 500.083 101.28 490.246 101.28Z" fill="white"/>
<path d="M569.623 55.5774H561.063V86.9526C561.063 95.2025 556.567 101.28 548.016 101.28C538.926 101.28 535.392 94.3356 535.392 86.8431V55.5774H526.832V88.2485C526.832 99.8659 533.675 109.092 546.083 109.092C552.926 109.092 559.031 105.834 561.486 100.514V100.952C561.486 103.553 561.702 106.382 562.016 107.577H570.253C569.929 105.515 569.614 101.819 569.614 97.8034V55.5774H569.623Z" fill="white"/>
<path d="M593.379 55.5774H584.819V107.577H593.379V55.5774Z" fill="white"/>
<path d="M589.099 28.5369C585.574 28.5369 582.679 31.4663 582.679 35.0528C582.679 38.6394 585.565 41.5688 589.099 41.5688C592.623 41.5688 595.519 38.6394 595.519 35.0528C595.519 31.4754 592.632 28.5369 589.099 28.5369Z" fill="white"/>
<path d="M617.125 29.0845H608.565V107.577H617.125V29.0845Z" fill="white"/>
<path d="M678.313 29.0845H669.753V63.9367C668.044 59.5927 663.009 54.0624 653.172 54.0624C638.948 54.0624 629.426 66.4372 629.426 81.5316C629.426 96.9455 638.408 109.11 653.172 109.11C661.939 109.11 667.721 103.79 669.969 98.6885V100.103C669.969 103.471 670.184 106.4 670.499 107.596H678.843C678.52 106.4 678.313 103.033 678.313 97.8216V29.0845ZM653.928 101.28C644.19 101.28 637.986 93.1399 637.986 81.5225C637.986 70.0146 644.19 61.8742 653.928 61.8742C663.764 61.8742 669.969 70.0238 669.969 81.5225C669.969 93.1399 663.549 101.28 653.928 101.28Z" fill="white"/>
<path d="M702.176 55.5774H693.616V107.577H702.176V55.5774Z" fill="white"/>
<path d="M697.896 28.5369C694.372 28.5369 691.477 31.4663 691.477 35.0528C691.477 38.6394 694.363 41.5688 697.896 41.5688C701.421 41.5688 704.316 38.6394 704.316 35.0528C704.307 31.4754 701.421 28.5369 697.896 28.5369Z" fill="white"/>
<path d="M741.649 54.0532C734.807 54.0532 728.917 57.3112 725.608 63.3891V55.5773H717.264V107.577H725.824V76.9595C725.824 68.7096 730.428 61.8651 738.664 61.8651C747.97 61.8651 751.396 68.0525 751.396 75.545V107.568H759.956V74.2491C759.938 62.9602 753.95 54.0532 741.649 54.0532Z" fill="white"/>
<path d="M810.857 62.9602C808.286 57.8588 802.837 54.0532 794.708 54.0532C780.808 54.0532 771.393 65.2326 771.393 79.7794C771.393 94.2168 780.915 105.296 794.502 105.296C802.954 105.296 808.304 100.733 810.758 95.6313V103.991C810.758 114.741 806.37 121.905 794.394 121.905C785.942 121.905 780.376 116.147 779.531 108.444L771.294 110.507C772.472 121.476 781.985 129.726 794.403 129.726C813.654 129.726 819.327 116.375 819.327 103.671V55.5773H810.875V62.9602H810.857ZM795.563 97.4748C786.148 97.4748 779.944 90.5299 779.944 79.6699C779.944 68.81 786.148 61.8651 795.563 61.8651C804.977 61.8651 811.181 68.81 811.181 79.6699C811.181 90.5299 804.977 97.4748 795.563 97.4748Z" fill="white"/>
<path d="M882.538 97.4749L867.135 55.5774H857.505L878.15 107.577H886.818L907.246 55.5774H898.048L882.538 97.4749Z" fill="white"/>
<path d="M925.553 55.5774H916.993V107.577H925.553V55.5774Z" fill="white"/>
<path d="M921.273 28.5369C917.74 28.5369 914.853 31.4663 914.853 35.0528C914.853 38.6394 917.74 41.5688 921.273 41.5688C924.798 41.5688 927.693 38.6394 927.693 35.0528C927.684 31.4754 924.798 28.5369 921.273 28.5369Z" fill="white"/>
<path d="M961.699 78.2647L953.355 76.3117C948.868 75.2257 946.62 72.8438 946.62 69.2573C946.62 64.9133 950.685 61.4454 956.142 61.4454C964.163 61.4454 967.049 67.3043 967.589 70.7813L975.187 67.9614C974.009 62.6409 969.414 54.0625 956.151 54.0625C946.414 54.0625 938.285 61.1169 938.285 69.8049C938.285 77.2973 943.204 82.3988 951.017 84.2422L959.361 86.1952C964.064 87.3907 967.166 89.8912 967.166 93.7971C967.166 98.2506 963.309 101.719 957.221 101.719C949.516 101.719 945.137 97.265 944.382 91.1871L936.685 93.8975C937.539 100.413 943.635 109.101 957.114 109.101C969.306 109.101 975.618 100.852 975.618 93.3591C975.609 85.5381 970.691 80.3272 961.699 78.2647Z" fill="white"/>
<path d="M991.983 28.5369C988.449 28.5369 985.563 31.4663 985.563 35.0528C985.563 38.6394 988.449 41.5688 991.983 41.5688C995.507 41.5688 998.403 38.6394 998.403 35.0528C998.403 31.4754 995.507 28.5369 991.983 28.5369Z" fill="white"/>
<path d="M996.263 55.5774H987.703V107.577H996.263V55.5774Z" fill="white"/>
<path d="M1033.81 54.0532C1018.95 54.0532 1008.14 65.5611 1008.14 81.5225C1008.14 97.5934 1018.95 109.101 1033.81 109.101C1048.67 109.101 1059.48 97.5934 1059.48 81.5225C1059.48 65.5611 1048.67 54.0532 1033.81 54.0532ZM1033.81 101.28C1024.72 101.28 1016.7 94.2259 1016.7 81.5225C1016.7 68.9286 1024.72 61.8742 1033.81 61.8742C1042.9 61.8742 1050.92 68.9377 1050.92 81.5225C1050.92 94.2259 1042.9 101.28 1033.81 101.28Z" fill="white"/>
<path d="M1095.96 54.0532C1089.12 54.0532 1083.23 57.3112 1079.92 63.3891V55.5773H1071.58V107.577H1080.14V76.9595C1080.14 68.7096 1084.74 61.8651 1092.97 61.8651C1102.27 61.8651 1105.7 68.0525 1105.7 75.545V107.568H1114.26V74.2491C1114.25 62.9602 1108.26 54.0532 1095.96 54.0532Z" fill="white"/>
<path d="M1150.09 78.2647L1141.75 76.3117C1137.25 75.2257 1135 72.8438 1135 69.2573C1135 64.9133 1139.07 61.4454 1144.52 61.4454C1152.54 61.4454 1155.44 67.3043 1155.97 70.7813L1163.56 67.9614C1162.38 62.6409 1157.79 54.0625 1144.52 54.0625C1134.79 54.0625 1126.66 61.1169 1126.66 69.8049C1126.66 77.2973 1131.58 82.3988 1139.39 84.2422L1147.73 86.1952C1152.44 87.3907 1155.54 89.8912 1155.54 93.7971C1155.54 98.2506 1151.68 101.719 1145.59 101.719C1137.89 101.719 1133.51 97.265 1132.76 91.1871L1125.06 93.8975C1125.91 100.413 1132.01 109.101 1145.49 109.101C1157.68 109.101 1163.99 100.852 1163.99 93.3591C1164 85.5381 1159.08 80.3272 1150.09 78.2647Z" fill="white"/>
</g>
<defs>
<clipPath id="clip0_442_5023">
<rect width="1164" height="130" fill="white"/>
</clipPath>
</defs>
</svg>
